<?xml version="1.0" encoding="UTF-8" standalone="no"?>
<svg
   xmlns:dc="http://purl.org/dc/elements/1.1/"
   xmlns:cc="http://creativecommons.org/ns#"
   xmlns:rdf="http://www.w3.org/1999/02/22-rdf-syntax-ns#"
   xmlns:svg="http://www.w3.org/2000/svg"
   xmlns="http://www.w3.org/2000/svg"
   xmlns:sodipodi="http://sodipodi.sourceforge.net/DTD/sodipodi-0.dtd"
   xmlns:inkscape="http://www.inkscape.org/namespaces/inkscape"
   height="24"
   width="24"
   version="1.1"
   id="svg2989"
   inkscape:version="0.48.4 r9939"
   sodipodi:docname="deluge-panel.svg">
  <defs
     id="defs2996" />
  <sodipodi:namedview
     pagecolor="#ffffff"
     bordercolor="#666666"
     borderopacity="1"
     objecttolerance="10"
     gridtolerance="10"
     guidetolerance="10"
     inkscape:pageopacity="0"
     inkscape:pageshadow="2"
     inkscape:window-width="714"
     inkscape:window-height="480"
     id="namedview2994"
     showgrid="false"
     inkscape:zoom="9.8333333"
     inkscape:cx="12"
     inkscape:cy="12"
     inkscape:window-x="832"
     inkscape:window-y="24"
     inkscape:window-maximized="0"
     inkscape:current-layer="svg2989" />
  <metadata
     id="metadata7">
    <rdf:RDF>
      <cc:Work
         rdf:about="">
        <dc:format>image/svg+xml</dc:format>
        <dc:type
           rdf:resource="http://purl.org/dc/dcmitype/StillImage" />
      </cc:Work>
    </rdf:RDF>
  </metadata>
  <path
     d="m 11.99991,5 c 0,0 -3.2288213,4.055387 -4.2662183,6.4 -0.5932,1.340693 -1.067563,2.991061 -1.067563,4.266667 0,2.94552 2.387813,5.333333 5.3333333,5.333333 2.945524,0 5.264254,-2.388624 5.333334,-5.333333 C 17.360206,14.498576 16.859966,12.740651 16.267026,11.4 15.229906,9.055083 11.99991,5 11.99991,5 z"
     id="path3883"
     inkscape:connector-curvature="0"
     sodipodi:nodetypes="cacssac"
     opacity="0.2"
     color="#bebebe"
     style="fill:#ffffff;fill-opacity:1;opacity:0.3" />
  <path
     sodipodi:nodetypes="cacssac"
     inkscape:connector-curvature="0"
     id="path3108"
     d="m 11.99991,4 c 0,0 -3.2288213,4.055387 -4.2662183,6.4 -0.5932,1.340693 -1.067563,2.991061 -1.067563,4.266667 0,2.94552 2.387813,5.333333 5.3333333,5.333333 2.945524,0 5.264254,-2.388624 5.333334,-5.333333 C 17.360206,13.498576 16.859966,11.740651 16.267026,10.4 15.229906,8.055083 11.99991,4 11.99991,4 z"
     fill="#ffffff"
     color="#bebebe"
     style="fill:#3c3c3c;fill-opacity:1" />
</svg>
