<?xml version="1.0" encoding="UTF-8" standalone="no"?>
<!-- Created with Inkscape (http://www.inkscape.org/) -->

<svg
   xmlns:dc="http://purl.org/dc/elements/1.1/"
   xmlns:cc="http://creativecommons.org/ns#"
   xmlns:rdf="http://www.w3.org/1999/02/22-rdf-syntax-ns#"
   xmlns:svg="http://www.w3.org/2000/svg"
   xmlns="http://www.w3.org/2000/svg"
   xmlns:sodipodi="http://sodipodi.sourceforge.net/DTD/sodipodi-0.dtd"
   xmlns:inkscape="http://www.inkscape.org/namespaces/inkscape"
   id="svg2"
   height="22"
   width="22"
   version="1.1"
   inkscape:version="0.48.4 r9939"
   sodipodi:docname="synapse-tray-icon.svg">
  <defs
     id="defs7">
    <linearGradient
       id="linearGradient3755">
      <stop
         style="stop-color:#ffffff;stop-opacity:1;"
         offset="0"
         id="stop3757" />
      <stop
         style="stop-color:#e6e6e6;stop-opacity:1;"
         offset="1"
         id="stop3759" />
    </linearGradient>
    <linearGradient
       id="linearGradient2990">
      <stop
         style="stop-color:#4b4b4b;stop-opacity:1;"
         offset="0"
         id="stop2992" />
      <stop
         style="stop-color:#676767;stop-opacity:1;"
         offset="1"
         id="stop2994" />
    </linearGradient>
  </defs>
  <sodipodi:namedview
     pagecolor="#ffffff"
     bordercolor="#666666"
     borderopacity="1"
     objecttolerance="10"
     gridtolerance="10"
     guidetolerance="10"
     inkscape:pageopacity="0"
     inkscape:pageshadow="2"
     inkscape:window-width="1260"
     inkscape:window-height="879"
     id="namedview5"
     showgrid="false"
     inkscape:zoom="32.772727"
     inkscape:cx="6.1026352"
     inkscape:cy="11"
     inkscape:window-x="145"
     inkscape:window-y="105"
     inkscape:window-maximized="0"
     inkscape:current-layer="svg2" />
  <metadata
     id="metadata8">
    <rdf:RDF>
      <cc:Work
         rdf:about="">
        <dc:format>image/svg+xml</dc:format>
        <dc:type
           rdf:resource="http://purl.org/dc/dcmitype/StillImage" />
        <dc:title />
      </cc:Work>
    </rdf:RDF>
  </metadata>
  <path
     style="fill:#3c3c3c;fill-opacity:1;stroke:none;stroke-opacity:1"
     d="m 4.7245204,8.3517488 c 0,-0.258757 0.7179576,-1.711002 1.0000238,-2.0227916 C 5.7600855,6.2896719 5.8969527,6.1254137 6.0286989,5.9639374 6.4911204,5.3971634 7.3205158,4.7629545 8.0096946,4.4491406 8.1937256,4.3653432 8.3885897,4.2724975 8.4427262,4.2428164 8.4968596,4.2131353 8.8594357,4.1115401 9.2484416,4.0170489 l 0.7072845,-0.171802 4.384e-4,-0.8973397 4.395e-4,-0.8973394 0.760456,0 0.760457,0 0,0.8995086 0,0.8995083 0.501902,0.1106589 c 1.836287,0.4048638 3.381728,1.5758124 4.236383,3.2098202 0.191688,0.366488 0.49366,1.129873 0.49366,1.247972 0,0.0112 -0.35086,0.02037 -0.779688,0.02037 l -0.779688,0 -0.175671,-0.403485 c -0.09662,-0.221917 -0.204364,-0.434085 -0.239432,-0.471483 -0.03507,-0.0374 -0.136081,-0.177504 -0.224473,-0.311345 C 14.138423,6.6886988 13.545577,6.1970457 12.799645,5.8332579 11.149017,5.0282531 9.2833739,5.2092639 7.8523954,6.3132548 c -0.4346678,0.335344 -0.9467885,0.901821 -1.1553176,1.277941 -0.063552,0.114636 -0.1466198,0.249495 -0.1845846,0.299685 -0.037963,0.05019 -0.101984,0.193917 -0.1422731,0.319392 l -0.073248,0.228137 -0.7861581,0 c -0.6397154,0 -0.786157,-0.01614 -0.786157,-0.08666 z"
     id="path2984"
     inkscape:connector-curvature="0" />
  <path
     style="fill:#3c3c3c;fill-opacity:1;stroke:none;stroke-opacity:1"
     d="M 9.9260472,13.448964 C 9.6918263,13.399577 9.3429579,13.278125 9.150783,13.179072 8.7118122,12.952811 7.7485351,12.020815 7.6519676,11.728926 c -0.037771,-0.114171 -0.061707,-0.214413 -0.053195,-0.222759 0.00853,-0.0083 0.3576887,-0.03443 0.7759405,-0.05797 l 0.7604557,-0.0428 0.2224374,0.210472 c 0.3355339,0.317488 0.9584288,0.499919 1.5533128,0.454928 0.416763,-0.03152 0.498655,-0.06023 0.837,-0.29349 0.368666,-0.254157 0.725459,-0.701537 0.801676,-1.005217 l 0.03603,-0.143555 -2.6225668,0 -2.6225682,0 0,-0.490707 c 0,-0.7751922 0.2019553,-1.5167602 0.5572076,-2.0460302 0.1616492,-0.240831 0.3327009,-0.459842 0.3801143,-0.486693 0.047413,-0.02685 0.1912747,-0.145368 0.3196907,-0.263376 0.1284171,-0.118007 0.4428087,-0.301867 0.6986509,-0.408578 0.3994604,-0.166613 0.5670305,-0.199651 1.1863125,-0.233891 0.937394,-0.05183 1.276096,0.03238 2.004569,0.49838 0.388935,0.248798 1.180459,1.168044 1.180459,1.370941 0,0.02879 -0.321868,0.05235 -0.715261,0.05235 l -0.715263,0 -0.316909,-0.258556 c -0.952306,-0.776952 -2.1571671,-0.527833 -2.9864996,0.617494 -0.1066027,0.147225 -0.1938305,0.290952 -0.1938305,0.319392 0,0.02844 1.176666,0.05171 2.6148131,0.05171 l 2.614815,0 0.04405,0.1673 c 0.07102,0.269743 0.04483,0.8038532 -0.06236,1.2713902 -0.23958,1.045061 -0.953484,1.973333 -1.844789,2.398736 -0.779732,0.37215 -1.335874,0.438621 -2.1802222,0.260581 z"
     id="path2986"
     inkscape:connector-curvature="0" />
  <path
     style="fill:#3c3c3c;fill-opacity:1;stroke:none;stroke-opacity:1"
     d="m 9.9564653,17.172555 c 0,-0.974797 0.037408,-0.894704 -0.4562743,-0.977016 C 9.0750549,16.124659 8.3251966,15.858099 7.8479506,15.608206 6.6352889,14.973238 5.6391671,13.93234 5.091056,12.727386 4.9845141,12.493165 4.8740191,12.256991 4.8455114,12.202555 4.8169994,12.148123 4.7750687,12.004393 4.7523274,11.883163 l -0.041355,-0.220418 0.7976461,0 c 0.6476812,0 0.7976461,0.0162 0.7976461,0.0862 0,0.143801 0.4248342,0.898212 0.6880279,1.221785 0.6649644,0.817509 1.4407492,1.35231 2.3997649,1.654319 0.4654742,0.146585 0.6270536,0.167169 1.2924396,0.164649 0.639321,-0.0025 0.842829,-0.02799 1.277566,-0.160535 0.905158,-0.275957 1.47455,-0.605521 2.073391,-1.200078 0.401513,-0.398641 0.803004,-0.993705 1.009852,-1.49673 l 0.110678,-0.269156 0.798534,-2.34e-4 0.798533,-2.35e-4 -0.146925,0.410648 c -0.345297,0.965083 -0.818972,1.723369 -1.51305,2.422177 -0.819794,0.825382 -2.114942,1.521502 -3.16143,1.699218 -0.493998,0.08389 -0.456274,0.0031 -0.456274,0.977767 l 0,0.87803 -0.760458,0 -0.7604554,0 0,-0.87803 z"
     id="path2988"
     inkscape:connector-curvature="0" />
</svg>
